<?xml version="1.0" encoding="UTF-8"?>
<svg width="109px" height="11px" viewBox="0 0 109 11" version="1.1" xmlns="http://www.w3.org/2000/svg" xmlns:xlink="http://www.w3.org/1999/xlink">
    <!-- Generator: Sketch 47 (45396) - http://www.bohemiancoding.com/sketch -->
    <title>БОЛЬНО СИДЕТЬ</title>
    <desc>Created with Sketch.</desc>
    <defs></defs>
    <g id="Half" stroke="none" stroke-width="1" fill="none" fill-rule="evenodd">
        <g id="03_MainPage_Slide_1" transform="translate(-515.000000, -32.000000)" fill="#FFFFFF">
            <path d="M518.436,41 L515.304,41 L515.304,32.6 L520.416,32.6 L520.416,34.04 L516.864,34.04 L516.864,35.864 L518.436,35.864 C520.164,35.864 521.208,36.752 521.208,38.432 C521.208,40.112 520.164,41 518.436,41 Z M516.864,37.304 L516.864,39.56 L518.292,39.56 C519.264,39.56 519.648,39.152 519.648,38.432 C519.648,37.712 519.264,37.304 518.292,37.304 L516.864,37.304 Z M523.228,36.8 C523.228,33.884 525.064,32.504 527.188,32.504 C529.312,32.504 531.148,33.884 531.148,36.8 C531.148,39.716 529.312,41.096 527.188,41.096 C525.064,41.096 523.228,39.716 523.228,36.8 Z M524.812,36.8 C524.812,38.78 525.928,39.656 527.188,39.656 C528.448,39.656 529.564,38.78 529.564,36.8 C529.564,34.82 528.448,33.944 527.188,33.944 C525.928,33.944 524.812,34.82 524.812,36.8 Z M532.46,41 C534.08,41 534.98,40.34 535.112,38.72 L535.448,34.088 L537.548,34.088 L537.548,41 L539.108,41 L539.108,32.6 L534.044,32.6 L533.6,38.6 C533.54,39.476 533.144,39.512 532.46,39.512 L532.46,41 Z M544.956,41 L541.824,41 L541.824,32.6 L543.384,32.6 L543.384,35.864 L544.956,35.864 C546.684,35.864 547.728,36.752 547.728,38.432 C547.728,40.112 546.684,41 544.956,41 Z M543.384,37.304 L543.384,39.56 L544.812,39.56 C545.784,39.56 546.168,39.152 546.168,38.432 C546.168,37.712 545.784,37.304 544.812,37.304 L543.384,37.304 Z M551.728,41 L551.728,37.232 L555.088,37.232 L555.088,41 L556.648,41 L556.648,32.6 L555.088,32.6 L555.088,35.792 L551.728,35.792 L551.728,32.6 L550.168,32.6 L550.168,41 L551.728,41 Z M559.304,36.8 C559.304,33.884 561.14,32.504 563.264,32.504 C565.388,32.504 567.224,33.884 567.224,36.8 C567.224,39.716 565.388,41.096 563.264,41.096 C561.14,41.096 559.304,39.716 559.304,36.8 Z M560.888,36.8 C560.888,38.78 562.004,39.656 563.264,39.656 C564.524,39.656 565.64,38.78 565.64,36.8 C565.64,34.82 564.524,33.944 563.264,33.944 C562.004,33.944 560.888,34.82 560.888,36.8 Z M573.352,36.8 C573.352,39.62 575.224,41.096 577.324,41.096 C579.16,41.096 580.408,40.172 580.804,38.552 L579.4,38.192 C579.076,39.044 578.488,39.656 577.324,39.656 C576.028,39.656 574.936,38.744 574.936,36.8 C574.936,34.856 576.028,33.944 577.324,33.944 C578.488,33.944 579.076,34.556 579.4,35.408 L580.804,35.048 C580.408,33.428 579.16,32.504 577.324,32.504 C575.224,32.504 573.352,33.98 573.352,36.8 Z M589.544,41 L589.544,32.6 L587.9,32.6 L584.816,38.144 L584.816,32.6 L583.256,32.6 L583.256,41 L584.9,41 L587.984,35.456 L587.984,41 L589.544,41 Z M591.996,42.488 L591.828,39.512 L592.596,39.512 L593.772,32.6 L598.608,32.6 L598.608,39.512 L599.34,39.512 L599.172,42.488 L597.828,42.488 L597.828,41 L593.34,41 L593.34,42.488 L591.996,42.488 Z M595.14,34.04 L594.132,39.512 L597.048,39.512 L597.048,34.04 L595.14,34.04 Z M606.952,41 L606.952,39.56 L603.196,39.56 L603.196,37.244 L606.112,37.244 L606.112,35.804 L603.196,35.804 L603.196,34.04 L606.832,34.04 L606.832,32.6 L601.636,32.6 L601.636,41 L606.952,41 Z M611.444,34.04 L611.444,41 L613.004,41 L613.004,34.04 L615.332,34.04 L615.332,32.6 L609.116,32.6 L609.116,34.04 L611.444,34.04 Z M620.64,41 L617.508,41 L617.508,32.6 L619.068,32.6 L619.068,35.864 L620.64,35.864 C622.368,35.864 623.412,36.752 623.412,38.432 C623.412,40.112 622.368,41 620.64,41 Z M619.068,37.304 L619.068,39.56 L620.496,39.56 C621.468,39.56 621.852,39.152 621.852,38.432 C621.852,37.712 621.468,37.304 620.496,37.304 L619.068,37.304 Z" id="БОЛЬНО-СИДЕТЬ"></path>
        </g>
    </g>
</svg>