<?xml version="1.0" encoding="UTF-8"?>
<svg width="160px" height="11px" viewBox="0 0 160 11" version="1.1" xmlns="http://www.w3.org/2000/svg" xmlns:xlink="http://www.w3.org/1999/xlink">
    <!-- Generator: Sketch 47 (45396) - http://www.bohemiancoding.com/sketch -->
    <title>ВОПРОСЫ О ПРОДУКТАХ</title>
    <desc>Created with Sketch.</desc>
    <defs></defs>
    <g id="Half" stroke="none" stroke-width="1" fill="none" fill-rule="evenodd">
        <g id="03_MainPage_Slide_1" transform="translate(-741.000000, -32.000000)" fill="#FFFFFF">
            <path d="M744.34,41 L741.208,41 L741.208,32.6 L744.28,32.6 C745.708,32.6 746.68,33.332 746.68,34.868 C746.68,35.552 746.38,36.14 745.852,36.416 C746.656,36.74 747.112,37.4 747.112,38.468 C747.112,40.112 746.068,41 744.34,41 Z M742.768,37.304 L742.768,39.56 L744.196,39.56 C745.168,39.56 745.552,39.152 745.552,38.432 C745.552,37.712 745.168,37.304 744.196,37.304 L742.768,37.304 Z M742.768,34.04 L742.768,35.864 L744.196,35.864 C744.82,35.864 745.18,35.636 745.18,34.952 C745.18,34.268 744.832,34.04 744.16,34.04 L742.768,34.04 Z M749.156,36.8 C749.156,33.884 750.992,32.504 753.116,32.504 C755.24,32.504 757.076,33.884 757.076,36.8 C757.076,39.716 755.24,41.096 753.116,41.096 C750.992,41.096 749.156,39.716 749.156,36.8 Z M750.74,36.8 C750.74,38.78 751.856,39.656 753.116,39.656 C754.376,39.656 755.492,38.78 755.492,36.8 C755.492,34.82 754.376,33.944 753.116,33.944 C751.856,33.944 750.74,34.82 750.74,36.8 Z M761.292,41 L761.292,34.088 L764.316,34.088 L764.316,41 L765.876,41 L765.876,32.6 L759.732,32.6 L759.732,41 L761.292,41 Z M770.596,41 L769.036,41 L769.036,32.6 L772.204,32.6 C773.98,32.6 774.832,33.68 774.832,35.156 C774.832,36.632 773.98,37.712 772.204,37.712 L770.596,37.712 L770.596,41 Z M770.596,34.04 L770.596,36.272 L772.144,36.272 C772.828,36.272 773.248,35.924 773.248,35.156 C773.248,34.388 772.828,34.04 772.144,34.04 L770.596,34.04 Z M776.636,36.8 C776.636,33.884 778.472,32.504 780.596,32.504 C782.72,32.504 784.556,33.884 784.556,36.8 C784.556,39.716 782.72,41.096 780.596,41.096 C778.472,41.096 776.636,39.716 776.636,36.8 Z M778.22,36.8 C778.22,38.78 779.336,39.656 780.596,39.656 C781.856,39.656 782.972,38.78 782.972,36.8 C782.972,34.82 781.856,33.944 780.596,33.944 C779.336,33.944 778.22,34.82 778.22,36.8 Z M786.708,36.8 C786.708,39.62 788.58,41.096 790.68,41.096 C792.516,41.096 793.764,40.172 794.16,38.552 L792.756,38.192 C792.432,39.044 791.844,39.656 790.68,39.656 C789.384,39.656 788.292,38.744 788.292,36.8 C788.292,34.856 789.384,33.944 790.68,33.944 C791.844,33.944 792.432,34.556 792.756,35.408 L794.16,35.048 C793.764,33.428 792.516,32.504 790.68,32.504 C788.58,32.504 786.708,33.98 786.708,36.8 Z M799.744,41 L796.612,41 L796.612,32.6 L798.172,32.6 L798.172,35.864 L799.744,35.864 C801.472,35.864 802.516,36.752 802.516,38.432 C802.516,40.112 801.472,41 799.744,41 Z M798.172,37.304 L798.172,39.56 L799.6,39.56 C800.572,39.56 800.956,39.152 800.956,38.432 C800.956,37.712 800.572,37.304 799.6,37.304 L798.172,37.304 Z M805.132,41 L805.132,32.504 L803.644,32.504 L803.644,41 L805.132,41 Z M811.764,36.8 C811.764,33.884 813.6,32.504 815.724,32.504 C817.848,32.504 819.684,33.884 819.684,36.8 C819.684,39.716 817.848,41.096 815.724,41.096 C813.6,41.096 811.764,39.716 811.764,36.8 Z M813.348,36.8 C813.348,38.78 814.464,39.656 815.724,39.656 C816.984,39.656 818.1,38.78 818.1,36.8 C818.1,34.82 816.984,33.944 815.724,33.944 C814.464,33.944 813.348,34.82 813.348,36.8 Z M827.876,41 L827.876,34.088 L830.9,34.088 L830.9,41 L832.46,41 L832.46,32.6 L826.316,32.6 L826.316,41 L827.876,41 Z M837.18,41 L835.62,41 L835.62,32.6 L838.788,32.6 C840.564,32.6 841.416,33.68 841.416,35.156 C841.416,36.632 840.564,37.712 838.788,37.712 L837.18,37.712 L837.18,41 Z M837.18,34.04 L837.18,36.272 L838.728,36.272 C839.412,36.272 839.832,35.924 839.832,35.156 C839.832,34.388 839.412,34.04 838.728,34.04 L837.18,34.04 Z M843.22,36.8 C843.22,33.884 845.056,32.504 847.18,32.504 C849.304,32.504 851.14,33.884 851.14,36.8 C851.14,39.716 849.304,41.096 847.18,41.096 C845.056,41.096 843.22,39.716 843.22,36.8 Z M844.804,36.8 C844.804,38.78 845.92,39.656 847.18,39.656 C848.44,39.656 849.556,38.78 849.556,36.8 C849.556,34.82 848.44,33.944 847.18,33.944 C845.92,33.944 844.804,34.82 844.804,36.8 Z M853.088,42.488 L852.92,39.512 L853.688,39.512 L854.864,32.6 L859.7,32.6 L859.7,39.512 L860.432,39.512 L860.264,42.488 L858.92,42.488 L858.92,41 L854.432,41 L854.432,42.488 L853.088,42.488 Z M856.232,34.04 L855.224,39.512 L858.14,39.512 L858.14,34.04 L856.232,34.04 Z M864.18,38.456 L863.112,41.096 L864.552,41.096 L868.032,32.6 L866.544,32.6 L864.912,36.644 L863.244,32.6 L861.744,32.6 L864.18,38.456 Z M871.648,41 L871.648,36.992 L874.696,41 L876.676,41 L873.028,36.356 L876.436,32.6 L874.516,32.6 L871.648,35.72 L871.648,32.6 L870.088,32.6 L870.088,41 L871.648,41 Z M880.148,34.04 L880.148,41 L881.708,41 L881.708,34.04 L884.036,34.04 L884.036,32.6 L877.82,32.6 L877.82,34.04 L880.148,34.04 Z M886.872,41 L885.192,41 L888.036,32.6 L889.596,32.6 L892.44,41 L890.76,41 L890.148,39.02 L887.484,39.02 L886.872,41 Z M888.816,34.664 L887.928,37.58 L889.704,37.58 L888.816,34.664 Z M895.708,41 L897.448,37.964 L899.188,41 L900.916,41 L898.3,36.464 L900.52,32.6 L898.816,32.6 L897.448,34.976 L896.08,32.6 L894.376,32.6 L896.596,36.464 L893.98,41 L895.708,41 Z" id="ВОПРОСЫ-О-ПРОДУКТАХ"></path>
        </g>
    </g>
</svg>