<?xml version="1.0" encoding="UTF-8"?>
<svg width="151px" height="11px" viewBox="0 0 151 11" version="1.1" xmlns="http://www.w3.org/2000/svg" xmlns:xlink="http://www.w3.org/1999/xlink">
    <!-- Generator: Sketch 47 (45396) - http://www.bohemiancoding.com/sketch -->
    <title>Здоровье ваших ног</title>
    <desc>Created with Sketch.</desc>
    <defs></defs>
    <g id="Half" stroke="none" stroke-width="1" fill="none" fill-rule="evenodd">
        <g id="03_MainPage_Slide_1" transform="translate(-333.000000, -32.000000)" fill="#FFFFFF">
            <path d="M333.296,38.672 C333.428,40.076 334.544,41.096 336.104,41.096 C337.724,41.096 338.948,40.004 338.948,38.276 C338.948,36.788 338.156,35.78 336.86,35.78 C336.716,35.78 336.632,35.792 336.524,35.804 L338.504,33.128 L338.504,32.6 L333.692,32.6 L333.692,33.992 L336.368,33.992 L334.784,36.164 L335.384,37.004 C335.636,36.872 335.84,36.824 336.116,36.824 C336.884,36.824 337.436,37.328 337.436,38.3 C337.436,39.164 336.884,39.704 336.104,39.704 C335.336,39.704 334.928,39.236 334.748,38.48 L333.296,38.672 Z M341.028,42.488 L340.86,39.512 L341.628,39.512 L342.804,32.6 L347.64,32.6 L347.64,39.512 L348.372,39.512 L348.204,42.488 L346.86,42.488 L346.86,41 L342.372,41 L342.372,42.488 L341.028,42.488 Z M344.172,34.04 L343.164,39.512 L346.08,39.512 L346.08,34.04 L344.172,34.04 Z M350.212,36.8 C350.212,33.884 352.048,32.504 354.172,32.504 C356.296,32.504 358.132,33.884 358.132,36.8 C358.132,39.716 356.296,41.096 354.172,41.096 C352.048,41.096 350.212,39.716 350.212,36.8 Z M351.796,36.8 C351.796,38.78 352.912,39.656 354.172,39.656 C355.432,39.656 356.548,38.78 356.548,36.8 C356.548,34.82 355.432,33.944 354.172,33.944 C352.912,33.944 351.796,34.82 351.796,36.8 Z M362.348,41 L360.788,41 L360.788,32.6 L363.956,32.6 C365.732,32.6 366.584,33.68 366.584,35.156 C366.584,36.632 365.732,37.712 363.956,37.712 L362.348,37.712 L362.348,41 Z M362.348,34.04 L362.348,36.272 L363.896,36.272 C364.58,36.272 365,35.924 365,35.156 C365,34.388 364.58,34.04 363.896,34.04 L362.348,34.04 Z M368.388,36.8 C368.388,33.884 370.224,32.504 372.348,32.504 C374.472,32.504 376.308,33.884 376.308,36.8 C376.308,39.716 374.472,41.096 372.348,41.096 C370.224,41.096 368.388,39.716 368.388,36.8 Z M369.972,36.8 C369.972,38.78 371.088,39.656 372.348,39.656 C373.608,39.656 374.724,38.78 374.724,36.8 C374.724,34.82 373.608,33.944 372.348,33.944 C371.088,33.944 369.972,34.82 369.972,36.8 Z M382.096,41 L378.964,41 L378.964,32.6 L382.036,32.6 C383.464,32.6 384.436,33.332 384.436,34.868 C384.436,35.552 384.136,36.14 383.608,36.416 C384.412,36.74 384.868,37.4 384.868,38.468 C384.868,40.112 383.824,41 382.096,41 Z M380.524,37.304 L380.524,39.56 L381.952,39.56 C382.924,39.56 383.308,39.152 383.308,38.432 C383.308,37.712 382.924,37.304 381.952,37.304 L380.524,37.304 Z M380.524,34.04 L380.524,35.864 L381.952,35.864 C382.576,35.864 382.936,35.636 382.936,34.952 C382.936,34.268 382.588,34.04 381.916,34.04 L380.524,34.04 Z M390.584,41 L387.452,41 L387.452,32.6 L389.012,32.6 L389.012,35.864 L390.584,35.864 C392.312,35.864 393.356,36.752 393.356,38.432 C393.356,40.112 392.312,41 390.584,41 Z M389.012,37.304 L389.012,39.56 L390.44,39.56 C391.412,39.56 391.796,39.152 391.796,38.432 C391.796,37.712 391.412,37.304 390.44,37.304 L389.012,37.304 Z M401.112,41 L401.112,39.56 L397.356,39.56 L397.356,37.244 L400.272,37.244 L400.272,35.804 L397.356,35.804 L397.356,34.04 L400.992,34.04 L400.992,32.6 L395.796,32.6 L395.796,41 L401.112,41 Z M410.804,41 L407.672,41 L407.672,32.6 L410.744,32.6 C412.172,32.6 413.144,33.332 413.144,34.868 C413.144,35.552 412.844,36.14 412.316,36.416 C413.12,36.74 413.576,37.4 413.576,38.468 C413.576,40.112 412.532,41 410.804,41 Z M409.232,37.304 L409.232,39.56 L410.66,39.56 C411.632,39.56 412.016,39.152 412.016,38.432 C412.016,37.712 411.632,37.304 410.66,37.304 L409.232,37.304 Z M409.232,34.04 L409.232,35.864 L410.66,35.864 C411.284,35.864 411.644,35.636 411.644,34.952 C411.644,34.268 411.296,34.04 410.624,34.04 L409.232,34.04 Z M416.904,41 L415.224,41 L418.068,32.6 L419.628,32.6 L422.472,41 L420.792,41 L420.18,39.02 L417.516,39.02 L416.904,41 Z M418.848,34.664 L417.96,37.58 L419.736,37.58 L418.848,34.664 Z M434.356,41 L434.356,32.6 L432.796,32.6 L432.796,39.512 L430.264,39.512 L430.264,32.6 L428.704,32.6 L428.704,39.512 L426.172,39.512 L426.172,32.6 L424.612,32.6 L424.612,41 L434.356,41 Z M443.804,41 L443.804,32.6 L442.16,32.6 L439.076,38.144 L439.076,32.6 L437.516,32.6 L437.516,41 L439.16,41 L442.244,35.456 L442.244,41 L443.804,41 Z M447.66,41 L449.4,37.964 L451.14,41 L452.868,41 L450.252,36.464 L452.472,32.6 L450.768,32.6 L449.4,34.976 L448.032,32.6 L446.328,32.6 L448.548,36.464 L445.932,41 L447.66,41 Z M460.568,41 L460.568,37.232 L463.928,37.232 L463.928,41 L465.488,41 L465.488,32.6 L463.928,32.6 L463.928,35.792 L460.568,35.792 L460.568,32.6 L459.008,32.6 L459.008,41 L460.568,41 Z M468.144,36.8 C468.144,33.884 469.98,32.504 472.104,32.504 C474.228,32.504 476.064,33.884 476.064,36.8 C476.064,39.716 474.228,41.096 472.104,41.096 C469.98,41.096 468.144,39.716 468.144,36.8 Z M469.728,36.8 C469.728,38.78 470.844,39.656 472.104,39.656 C473.364,39.656 474.48,38.78 474.48,36.8 C474.48,34.82 473.364,33.944 472.104,33.944 C470.844,33.944 469.728,34.82 469.728,36.8 Z M480.28,41 L480.28,34.04 L483.928,34.04 L483.928,32.6 L478.72,32.6 L478.72,41 L480.28,41 Z" id="Здоровье-ваших-ног"></path>
        </g>
    </g>
</svg>