<?xml version="1.0" encoding="UTF-8"?>
<svg width="209px" height="11px" viewBox="0 0 209 11" version="1.1" xmlns="http://www.w3.org/2000/svg" xmlns:xlink="http://www.w3.org/1999/xlink">
    <!-- Generator: Sketch 47 (45396) - http://www.bohemiancoding.com/sketch -->
    <title>ИНСТРУКЦИЯ ПО ПРИМЕН</title>
    <desc>Created with Sketch.</desc>
    <defs></defs>
    <g id="Half" stroke="none" stroke-width="1" fill="none" fill-rule="evenodd">
        <g id="03_MainPage_Slide_1" transform="translate(-947.000000, -32.000000)" fill="#FFFFFF">
            <path d="M954.212,41 L954.212,32.6 L952.568,32.6 L949.484,38.144 L949.484,32.6 L947.924,32.6 L947.924,41 L949.568,41 L952.652,35.456 L952.652,41 L954.212,41 Z M958.932,41 L958.932,37.232 L962.292,37.232 L962.292,41 L963.852,41 L963.852,32.6 L962.292,32.6 L962.292,35.792 L958.932,35.792 L958.932,32.6 L957.372,32.6 L957.372,41 L958.932,41 Z M966.508,36.8 C966.508,39.62 968.38,41.096 970.48,41.096 C972.316,41.096 973.564,40.172 973.96,38.552 L972.556,38.192 C972.232,39.044 971.644,39.656 970.48,39.656 C969.184,39.656 968.092,38.744 968.092,36.8 C968.092,34.856 969.184,33.944 970.48,33.944 C971.644,33.944 972.232,34.556 972.556,35.408 L973.96,35.048 C973.564,33.428 972.316,32.504 970.48,32.504 C968.38,32.504 966.508,33.98 966.508,36.8 Z M977.912,34.04 L977.912,41 L979.472,41 L979.472,34.04 L981.8,34.04 L981.8,32.6 L975.584,32.6 L975.584,34.04 L977.912,34.04 Z M985.536,41 L983.976,41 L983.976,32.6 L987.144,32.6 C988.92,32.6 989.772,33.68 989.772,35.156 C989.772,36.632 988.92,37.712 987.144,37.712 L985.536,37.712 L985.536,41 Z M985.536,34.04 L985.536,36.272 L987.084,36.272 C987.768,36.272 988.188,35.924 988.188,35.156 C988.188,34.388 987.768,34.04 987.084,34.04 L985.536,34.04 Z M993.412,38.456 L992.344,41.096 L993.784,41.096 L997.264,32.6 L995.776,32.6 L994.144,36.644 L992.476,32.6 L990.976,32.6 L993.412,38.456 Z M1000.88,41 L1000.88,36.992 L1003.928,41 L1005.908,41 L1002.26,36.356 L1005.668,32.6 L1003.748,32.6 L1000.88,35.72 L1000.88,32.6 L999.32,32.6 L999.32,41 L1000.88,41 Z M1013.496,41 L1013.496,42.488 L1014.84,42.488 L1015.056,39.512 L1014.18,39.512 L1014.18,32.6 L1012.62,32.6 L1012.62,39.512 L1009.596,39.512 L1009.596,32.6 L1008.036,32.6 L1008.036,41 L1013.496,41 Z M1023.76,41 L1023.76,32.6 L1022.116,32.6 L1019.032,38.144 L1019.032,32.6 L1017.472,32.6 L1017.472,41 L1019.116,41 L1022.2,35.456 L1022.2,41 L1023.76,41 Z M1032.2,41 L1030.64,41 L1030.64,37.376 L1029.824,37.376 L1027.568,41 L1025.828,41 L1028.156,37.244 C1027.136,36.92 1026.584,36.092 1026.584,34.988 C1026.584,33.596 1027.46,32.6 1029.14,32.6 L1032.2,32.6 L1032.2,41 Z M1030.64,35.936 L1030.64,34.04 L1029.128,34.04 C1028.564,34.04 1028.144,34.304 1028.144,34.988 C1028.144,35.672 1028.564,35.936 1029.128,35.936 L1030.64,35.936 Z M1040.896,41 L1040.896,34.088 L1043.92,34.088 L1043.92,41 L1045.48,41 L1045.48,32.6 L1039.336,32.6 L1039.336,41 L1040.896,41 Z M1048.136,36.8 C1048.136,33.884 1049.972,32.504 1052.096,32.504 C1054.22,32.504 1056.056,33.884 1056.056,36.8 C1056.056,39.716 1054.22,41.096 1052.096,41.096 C1049.972,41.096 1048.136,39.716 1048.136,36.8 Z M1049.72,36.8 C1049.72,38.78 1050.836,39.656 1052.096,39.656 C1053.356,39.656 1054.472,38.78 1054.472,36.8 C1054.472,34.82 1053.356,33.944 1052.096,33.944 C1050.836,33.944 1049.72,34.82 1049.72,36.8 Z M1064.248,41 L1064.248,34.088 L1067.272,34.088 L1067.272,41 L1068.832,41 L1068.832,32.6 L1062.688,32.6 L1062.688,41 L1064.248,41 Z M1073.552,41 L1071.992,41 L1071.992,32.6 L1075.16,32.6 C1076.936,32.6 1077.788,33.68 1077.788,35.156 C1077.788,36.632 1076.936,37.712 1075.16,37.712 L1073.552,37.712 L1073.552,41 Z M1073.552,34.04 L1073.552,36.272 L1075.1,36.272 C1075.784,36.272 1076.204,35.924 1076.204,35.156 C1076.204,34.388 1075.784,34.04 1075.1,34.04 L1073.552,34.04 Z M1086.384,41 L1086.384,32.6 L1084.74,32.6 L1081.656,38.144 L1081.656,32.6 L1080.096,32.6 L1080.096,41 L1081.74,41 L1084.824,35.456 L1084.824,41 L1086.384,41 Z M1091.104,41 L1091.104,35.816 L1092.712,40.232 L1093.84,40.232 L1095.448,35.816 L1095.448,41 L1097.008,41 L1097.008,32.6 L1095.256,32.6 L1093.276,37.844 L1091.296,32.6 L1089.544,32.6 L1089.544,41 L1091.104,41 Z M1105.484,41 L1105.484,39.56 L1101.728,39.56 L1101.728,37.244 L1104.644,37.244 L1104.644,35.804 L1101.728,35.804 L1101.728,34.04 L1105.364,34.04 L1105.364,32.6 L1100.168,32.6 L1100.168,41 L1105.484,41 Z M1109.628,41 L1109.628,37.232 L1112.988,37.232 L1112.988,41 L1114.548,41 L1114.548,32.6 L1112.988,32.6 L1112.988,35.792 L1109.628,35.792 L1109.628,32.6 L1108.068,32.6 L1108.068,41 L1109.628,41 Z M1123.024,41 L1123.024,39.56 L1119.268,39.56 L1119.268,37.244 L1122.184,37.244 L1122.184,35.804 L1119.268,35.804 L1119.268,34.04 L1122.904,34.04 L1122.904,32.6 L1117.708,32.6 L1117.708,41 L1123.024,41 Z M1127.168,41 L1127.168,37.232 L1130.528,37.232 L1130.528,41 L1132.088,41 L1132.088,32.6 L1130.528,32.6 L1130.528,35.792 L1127.168,35.792 L1127.168,32.6 L1125.608,32.6 L1125.608,41 L1127.168,41 Z M1141.536,41 L1141.536,32.6 L1139.892,32.6 L1136.808,38.144 L1136.808,32.6 L1135.248,32.6 L1135.248,41 L1136.892,41 L1139.976,35.456 L1139.976,41 L1141.536,41 Z M1146.256,41 L1144.696,41 L1144.696,32.6 L1146.256,32.6 L1146.256,36.08 L1147.528,36.08 C1147.816,33.644 1149.508,32.504 1151.464,32.504 C1153.588,32.504 1155.424,33.884 1155.424,36.8 C1155.424,39.716 1153.588,41.096 1151.464,41.096 C1149.508,41.096 1147.816,39.956 1147.528,37.52 L1146.256,37.52 L1146.256,41 Z M1149.088,36.8 C1149.088,38.78 1150.204,39.656 1151.464,39.656 C1152.724,39.656 1153.84,38.78 1153.84,36.8 C1153.84,34.82 1152.724,33.944 1151.464,33.944 C1150.204,33.944 1149.088,34.82 1149.088,36.8 Z" id="ИНСТРУКЦИЯ-ПО-ПРИМЕН"></path>
        </g>
    </g>
</svg>