<?xml version="1.0" encoding="UTF-8"?>
<svg width="10px" height="161px" viewBox="0 0 10 161" version="1.1" xmlns="http://www.w3.org/2000/svg" xmlns:xlink="http://www.w3.org/1999/xlink">
    <!-- Generator: Sketch 47 (45396) - http://www.bohemiancoding.com/sketch -->
    <title>препараты copy 2</title>
    <desc>Created with Sketch.</desc>
    <defs></defs>
    <g id="Half" stroke="none" stroke-width="1" fill="none" fill-rule="evenodd">
        <g id="03_MainPage_Slide_1" transform="translate(-26.000000, -295.000000)" fill="#FFFFFF">
            <path d="M-48.208,379.496 L-48.208,371.84 L-44.068,371.84 L-44.068,379.496 L-43.276,379.496 L-43.276,371.096 L-49,371.096 L-49,379.496 L-48.208,379.496 Z M-28.06,379.496 L-28.852,379.496 L-28.852,371.096 L-25.996,371.096 C-24.496,371.096 -23.572,371.96 -23.572,373.412 C-23.572,374.864 -24.496,375.728 -25.996,375.728 L-28.06,375.728 L-28.06,379.496 Z M-28.06,371.84 L-28.06,374.984 L-25.984,374.984 C-24.832,374.984 -24.4,374.312 -24.4,373.412 C-24.4,372.512 -24.832,371.84 -25.984,371.84 L-28.06,371.84 Z M-5.056,379.496 L-5.056,378.752 L-9.124,378.752 L-9.124,375.392 L-5.896,375.392 L-5.896,374.648 L-9.124,374.648 L-9.124,371.84 L-5.176,371.84 L-5.176,371.096 L-9.916,371.096 L-9.916,379.496 L-5.056,379.496 Z M9.692,379.496 L9.692,371.84 L13.832,371.84 L13.832,379.496 L14.624,379.496 L14.624,371.096 L8.9,371.096 L8.9,379.496 L9.692,379.496 Z M28.772,379.496 L27.956,379.496 L30.992,371.096 L31.688,371.096 L34.724,379.496 L33.908,379.496 L33.068,377.108 L29.612,377.108 L28.772,379.496 Z M31.34,372.176 L29.864,376.364 L32.816,376.364 L31.34,372.176 Z M48.848,379.496 L48.056,379.496 L48.056,371.096 L50.912,371.096 C52.412,371.096 53.336,371.96 53.336,373.412 C53.336,374.864 52.412,375.728 50.912,375.728 L48.848,375.728 L48.848,379.496 Z M48.848,371.84 L48.848,374.984 L50.924,374.984 C52.076,374.984 52.508,374.312 52.508,373.412 C52.508,372.512 52.076,371.84 50.924,371.84 L48.848,371.84 Z M66.716,379.496 L65.9,379.496 L68.936,371.096 L69.632,371.096 L72.668,379.496 L71.852,379.496 L71.012,377.108 L67.556,377.108 L66.716,379.496 Z M69.284,372.176 L67.808,376.364 L70.76,376.364 L69.284,372.176 Z M86.684,371.84 L86.684,379.496 L87.476,379.496 L87.476,371.84 L89.984,371.84 L89.984,371.096 L84.176,371.096 L84.176,371.84 L86.684,371.84 Z M106.28,379.496 L103.388,379.496 L103.388,371.096 L104.18,371.096 L104.18,374.648 L106.28,374.648 C107.864,374.648 108.86,375.596 108.86,377.072 C108.86,378.548 107.864,379.496 106.28,379.496 Z M104.18,375.392 L104.18,378.752 L106.124,378.752 C107.336,378.752 108.032,378.308 108.032,377.072 C108.032,375.836 107.336,375.392 106.124,375.392 L104.18,375.392 Z M110.996,379.496 L110.996,371 L110.252,371 L110.252,379.496 L110.996,379.496 Z" id="препараты-copy-2" transform="translate(30.998000, 375.248000) rotate(-90.000000) translate(-30.998000, -375.248000) "></path>
        </g>
    </g>
</svg>